#!OML:ASF H:\Terrain\Patient Classification 1\Takeo\Monday\TakeoMonday.ASF
:FULLY-SPECIFIED
:DEGREES
1188
root 9.80933 15.6795 -1.78128 2.38827 3.53699 0.395693
lowerback 31.1844 -2.98167 5.89226
upperback 12.2781 -1.94926 1.34727
thorax -3.23549 -0.791345 -1.25232
lowerneck -13.6897 -11.4366 -7.33276
upperneck -1.73974 -14.6505 12.5136
head 3.1455 -6.92522 3.8317
rclavicle 1.90833e-014 -7.55382e-015
rhumerus 9.8988 7.23273 -57.1963
rradius 106.296
rwrist 4.19145
rhand -37.733 32.9774
rfingers 7.12502
rthumb -10.7817 3.27408
lclavicle 1.90833e-014 -7.55382e-015
lhumerus -23.7209 0.24143 87.6857
lradius 52.0327
lwrist 33.9112
lhand -31.5742 13.2273
lfingers 7.12502
lthumb -4.83755 43.1521
rfemur -46.3538 -0.836485 14.8617
rtibia 61.1851
rfoot -15.0245 -6.36444
rtoes -2.1103
lfemur -34.6078 10.3652 -28.3859
ltibia 67.356
lfoot -33.8477 22.6033
ltoes 0.34357
1189
root 9.79683 15.7447 -1.74865 2.10173 3.39198 0.599145
lowerback 30.7988 -2.88356 5.32952
upperback 12.0594 -2.01935 1.1648
thorax -3.31865 -0.843681 -1.11689
lowerneck -13.4144 -11.5213 -7.64518
upperneck -1.96927 -14.7258 12.7885
head 3.08812 -6.96794 3.96878
rclavicle -4.77083e-015 -1.07344e-014
rhumerus 10.2489 7.13694 -56.6116
rradius 106.675
rwrist 4.1552
rhand -37.9268 32.4896
rfingers 7.12502
rthumb -10.9687 2.7961
lclavicle -4.77083e-015 -1.07344e-014
lhumerus -24.2212 0.467934 87.5069
lradius 51.6741
lwrist 34.0015
lhand -31.3585 13.0488
lfingers 7.12502
lthumb -4.62931 42.9782
rfemur -45.4172 -0.579851 14.6714
rtibia 60.3405
rfoot -14.8303 -6.40289
rtoes -1.79916
lfemur -33.5309 10.7473 -28.4274
ltibia 66.2094
lfoot -33.4743 22.5431
ltoes -0.746153
1190
root 9.78638 15.8159 -1.71878 1.83764 3.50995 0.970947
lowerback 30.3409 -2.90419 4.78082
upperback 11.9318 -2.23678 0.94629
thorax -3.27066 -0.960507 -0.984934
lowerneck -13.6356 -11.6164 -7.76203
upperneck -1.94944 -14.8162 12.6402
head 3.13055 -7.00776 3.9214
rclavicle 1.23246e-014 -1.47101e-014
rhumerus 10.6165 6.81031 -56.0497
rradius 107.281
rwrist 3.96998
rhand -37.7987 31.8624
rfingers 7.12502
rthumb -10.8451 2.16243
lclavicle 1.23246e-014 -1.47101e-014
lhumerus -24.6051 0.821158 87.3215
lradius 51.4186
lwrist 34.0911
lhand -31.7427 12.5
lfingers 7.12502
lthumb -5.00029 42.421
rfemur -44.4541 -0.571716 14.2795
rtibia 59.5007
rfoot -14.6188 -6.49176
rtoes -1.46955
lfemur -32.4831 10.7487 -28.6659
ltibia 65.0444
lfoot -32.9694 22.75
ltoes -2.36766
1191
root 9.7736 15.8866 -1.69006 1.61347 3.56552 1.42547
lowerback 29.7612 -2.84068 4.12021
upperback 11.8638 -2.38347 0.722235
thorax -3.08919 -1.044 -0.82385
lowerneck -13.9071 -11.7055 -7.70114
upperneck -2.03241 -14.9067 12.3593
head 3.12415 -7.05462 3.81041
rclavicle -2.78299e-014 4.09496e-014
rhumerus 11.1465 6.22927 -55.3373
rradius 107.745
rwrist 3.46737
rhand -37.3799 31.8763
rfingers 7.12502
rthumb -10.4411 2.15561
lclavicle -2.78299e-014 4.09496e-014
lhumerus -24.7728 1.51816 87.1193
lradius 51.1643
lwrist 33.7782
lhand -31.5499 12.6025
lfingers 7.12502
lthumb -4.81408 42.5278
rfemur -43.5846 -0.512303 13.8245
rtibia 58.682
rfoot -14.4029 -6.66933
rtoes -1.80661
lfemur -31.5441 10.7705 -28.9782
ltibia 63.9535
lfoot -32.4106 22.7244
ltoes -1.90495
1192
root 9.75594 15.9473 -1.65813 1.30462 3.47847 1.08747
lowerback 29.2937 -2.81748 4.07763
upperback 11.6934 -2.39493 0.681952
thorax -3.07208 -1.05428 -0.850696
lowerneck -13.5682 -11.7189 -7.77781
upperneck -2.48139 -14.8987 12.4369
head 2.9485 -7.07152 3.87524
rclavicle 4.37326e-015 0
rhumerus 11.6087 5.76283 -54.6839
rradius 108.14
rwrist 3.09122
rhand -36.8698 32.0887
rfingers 7.12502
rthumb -9.94905 2.3438
lclavicle 4.37326e-015 0
lhumerus -25.0616 2.12531 86.8691
lradius 50.8683
lwrist 33.4327
lhand -31.2439 12.8215
lfingers 7.12502
lthumb -4.51865 42.7533
rfemur -42.6489 -0.0618782 14.2449
rtibia 57.8036
rfoot -14.1947 -6.95663
rtoes -2.2103
lfemur -30.6525 11.1431 -28.3629
ltibia 62.9735
lfoot -31.8576 22.4583
ltoes -1.4766
1193
root 9.74042 16.0027 -1.61866 1.01472 3.39062 0.882417
lowerback 28.8644 -2.78632 3.94123
upperback 11.4671 -2.41853 0.603611
thorax -3.13316 -1.07341 -0.859736
lowerneck -13.0528 -11.6499 -7.66866
upperneck -3.05202 -14.799 12.3078
head 2.66879 -7.05917 3.87614
rclavicle 7.95139e-015 -1.70955e-014
rhumerus 12.1241 5.38526 -54.058
rradius 108.347
rwrist 2.87778
rhand -36.4284 31.4384
rfingers 7.12502
rthumb -9.52321 1.67356
lclavicle 7.95139e-015 -1.70955e-014
lhumerus -25.4393 2.24963 86.6818
lradius 50.4325
lwrist 33.4952
lhand -31.4568 11.9761
lfingers 7.12502
lthumb -4.7242 41.9035
rfemur -41.7152 0.3782 14.4849
rtibia 56.894
rfoot -14.0054 -7.19897
rtoes -2.2924
lfemur -29.7293 11.5265 -27.9044
ltibia 62.0604
lfoot -31.6986 22.1053
ltoes -1.79208
1194
root 9.73015 16.0787 -1.57345 0.659719 3.33434 0.989034
lowerback 28.3638 -2.74098 3.56181
upperback 11.3523 -2.49572 0.430134
thorax -3.03334 -1.1191 -0.822756
lowerneck -12.7179 -11.5848 -7.61195
upperneck -3.55924 -14.6949 12.2383
head 2.44518 -7.03371 3.89147
rclavicle -3.04141e-014 4.17448e-014
rhumerus 12.7163 5.0036 -53.3498
rradius 108.402
rwrist 2.55051
rhand -36.5377 30.7719
rfingers 7.12502
rthumb -9.62864 1.01196
lclavicle -3.04141e-014 4.17448e-014
lhumerus -25.6256 2.36114 86.4701
lradius 49.7626
lwrist 33.3359
lhand -31.676 12.5278
lfingers 7.12502
lthumb -4.93586 42.4503
rfemur -40.5482 0.586764 14.4005
rtibia 55.8784
rfoot -13.856 -7.32293
rtoes -2.32213
lfemur -28.5698 11.801 -27.7814
ltibia 61.1116
lfoot -32.0219 21.4713
ltoes -1.16663
1195
root 9.71546 16.1477 -1.54118 0.237398 3.36286 0.358022
lowerback 28.0666 -2.86776 3.86896
upperback 11.2496 -2.5951 0.415542
thorax -3.02564 -1.16207 -0.99074
lowerneck -12.9369 -11.6216 -7.68691
upperneck -3.69817 -14.7134 12.3661
head 2.45529 -7.03424 3.93083
rclavicle 7.35503e-015 9.93923e-015
rhumerus 13.2407 4.55093 -52.6207
rradius 108.671
rwrist 2.24553
rhand -37.5131 31.2033
rfingers 7.12502
rthumb -10.5697 1.48908
lclavicle 7.35503e-015 9.93923e-015
lhumerus -25.7597 2.97899 86.1528
lradius 49.1722
lwrist 32.7712
lhand -31.5184 14.5277
lfingers 7.12502
lthumb -4.78369 44.4537
rfemur -39.3189 0.893089 15.1471
rtibia 54.8343
rfoot -13.74 -7.55739
rtoes -1.85469
lfemur -27.5639 12.09 -26.8239
ltibia 60.246
lfoot -31.7303 21.0256
ltoes -1.20628
1196
root 9.70137 16.2074 -1.51578 -0.030613 3.45297 -0.311665
lowerback 27.8085 -3.05287 4.27861
upperback 11.0088 -2.73939 0.385664
thorax -3.19721 -1.22814 -1.21597
lowerneck -12.911 -11.6745 -7.69665
upperneck -4.0099 -14.7629 12.4794
head 2.37325 -7.06428 3.97134
rclavicle 1.63003e-014 -5.76476e-015
rhumerus 13.8251 4.08163 -52.0689
rradius 108.841
rwrist 2.1864
rhand -38.5228 31.9669
rfingers 7.12502
rthumb -11.5435 2.30482
lclavicle 1.63003e-014 -5.76476e-015
lhumerus -26.1469 3.67149 85.7938
lradius 48.8091
lwrist 32.4115
lhand -31.4872 14.0727
lfingers 7.12502
lthumb -4.75357 43.9993
rfemur -38.301 1.20616 15.9149
rtibia 53.8009
rfoot -13.5876 -7.85608
rtoes -1.17774
lfemur -26.8304 12.3025 -25.877
ltibia 59.3955
lfoot -30.8516 21.0245
ltoes -1.91046
